<?xml version="1.0" encoding="UTF-8"?>
<svg width="364px" height="318px" viewBox="0 0 364 318" version="1.1" xmlns="http://www.w3.org/2000/svg" xmlns:xlink="http://www.w3.org/1999/xlink">
    <title>done</title>
    <defs>
        <path d="M111.262,229.758 C152.041,229.758 184.546,198.632 184.546,158.641 C184.546,118.847 152.041,87.524 111.262,87.524 C70.483,87.524 37.781,118.847 37.781,158.641 C37.781,198.632 70.483,229.758 111.262,229.758 Z M111.262,201.981 C87.031,201.981 68.513,183.069 68.513,158.641 C68.513,134.804 87.031,115.301 111.262,115.301 C135.296,115.301 153.814,135.001 153.814,158.641 C153.814,182.675 135.099,201.981 111.262,201.981 Z M235.963,227 L235.963,189.767 L251.723,172.234 L290.729,227 L326.78,227 L272.605,150.564 L325.204,89.691 L288.759,89.691 L235.963,150.761 L235.963,89.691 L205.428,89.691 L205.428,227 L235.963,227 Z" id="path-1"></path>
    </defs>
    <g id="done" stroke="none" stroke-width="1" fill="none" fill-rule="evenodd">
        <g id="OK" fill-rule="nonzero">
            <use fill="#000000" xlink:href="#path-1"></use>
            <use fill="#FFFFFF" xlink:href="#path-1"></use>
        </g>
    </g>
</svg>