<?xml version="1.0" encoding="UTF-8"?>
<svg width="364px" height="318px" viewBox="0 0 364 318" version="1.1" xmlns="http://www.w3.org/2000/svg" xmlns:xlink="http://www.w3.org/1999/xlink">
    <title>dry</title>
    <g id="dry" stroke="none" stroke-width="1" fill="none" fill-rule="evenodd">
        <g transform="translate(1.000000, 39.000000)" fill="#FFFFFF" id="Path_1097">
            <path d="M330.708921,188.92325 L358.904895,188.92325 C360.666695,189.037699 362.028451,190.517771 361.999548,192.286277 L361.999548,210.863408 C362.003407,212.597813 360.611004,214.011281 358.87988,214.0298 L336.847265,214.0298 C335.620975,228.679691 323.415968,239.957415 308.741731,240 L53.2567308,240 C38.5812995,239.990664 26.3759443,228.686304 25.2166211,214.0298 L3.11954447,214.0298 C1.3884199,214.011281 -0.00398300895,212.597813 0.000169368532,210.863408 L0.000169368532,192.286277 C-0.0175216564,190.512828 1.35280616,189.035383 3.11954447,188.92325 L37.6693777,188.92325 C44.57644,188.922712 50.1785334,194.527354 50.1875587,201.447126 L50.1461875,202.483313 L50.1461875,211.817663 C50.1446504,212.644532 50.4719047,213.437964 51.055606,214.022559 C51.6393074,214.607154 52.431382,214.934765 53.2567308,214.932969 L308.743656,214.932969 C310.492861,214.923804 311.919877,213.526992 311.969654,211.775252 L311.969654,201.842323 C311.887511,198.461402 313.164407,195.189128 315.513558,192.760435 C317.862709,190.331742 321.087197,188.950216 324.462819,188.926142 L330.708921,188.92325 Z M100.5037,0 L129.578092,0 C121.541479,10.9286317 115.935189,24.3865215 115.935189,38.1162296 C115.935189,52.2276397 127.615361,67.4002972 132.737703,86.7090245 C134.276876,92.3401898 135.071643,98.1493916 135.101639,103.987791 C135.088904,107.05262 134.858697,110.112665 134.412759,113.144785 C132.828143,124.558255 128.478385,136.705249 122.888451,147.412185 L93.6995668,147.412185 C95.1360163,145.421744 104.870776,131.375879 108.708684,115.776216 C109.696836,111.925112 110.217898,107.968691 110.260588,103.99261 C110.187117,98.9789146 109.337059,94.0070462 107.740788,89.2546689 C102.51165,72.8896743 91.0700849,57.1174746 91.0700849,38.121049 C91.0700849,26.1061087 94.6078108,12.2414555 100.498889,0.00481947066 M168.407448,0.00481947066 L197.498196,0.00481947066 C189.462545,10.9334511 183.856255,24.391341 183.856255,38.121049 C183.856255,51.8950962 194.978396,66.6725571 200.281617,85.3239086 C202.053791,91.3880032 202.972501,97.6702168 203.01116,103.988755 C202.992512,106.657894 202.822584,109.323818 202.502197,111.973654 C201.024376,123.740873 196.583217,136.348608 190.804707,147.409294 L161.640837,147.409294 C163.180234,145.197157 174.642966,128.692397 177.515865,111.505201 C177.922791,109.019397 178.137022,106.505762 178.156639,103.986827 C178.156639,97.4159605 176.498901,91.1573959 174.134965,84.9402787 C168.50366,70.0722117 158.990189,55.4345154 158.990189,38.1162296 C158.990189,26.1012892 162.503862,12.236636 168.41322,0 M236.329476,0 L265.403868,0 C257.367255,10.9286317 251.736912,24.3865215 251.736912,38.1162296 C251.736912,53.5761276 265.783906,70.3440299 269.845027,92.3256356 C270.558422,96.172386 270.921033,100.07618 270.928377,103.988755 C270.878277,109.032541 270.30041,114.057161 269.204253,118.9802 C266.986204,128.878658 263.466828,138.438464 258.73828,147.409294 L229.548434,147.409294 C230.984883,145.369694 240.876469,131.12623 244.627786,115.35403 C245.553335,111.636134 246.035519,107.821392 246.064235,103.989718 C245.990893,98.7502932 245.073402,93.5571216 243.3472,88.6107876 C238.055524,72.4433913 226.905482,56.8514398 226.905482,38.1191212 C226.905482,26.1041809 230.410496,12.2395277 236.328514,0.0028916824"></path>
        </g>
    </g>
</svg>