<?xml version="1.0" encoding="UTF-8"?>
<svg width="364px" height="318px" viewBox="0 0 364 318" version="1.1" xmlns="http://www.w3.org/2000/svg" xmlns:xlink="http://www.w3.org/1999/xlink">
    <title>rinse</title>
    <g id="rinse" stroke="none" stroke-width="1" fill="none" fill-rule="evenodd">
        <g transform="translate(1.000000, 51.000000)" fill="#FFFFFF" id="Path_437">
            <path d="M181.916821,216 C178.161675,216 174.4591,215.950163 170.754022,215.838029 L170.754022,153.902679 C174.236295,153.979927 177.751112,154.014813 181.213357,154.014813 C184.675602,154.014813 188.13284,153.979927 191.580065,153.902679 L191.597589,215.882882 C188.383184,215.967606 185.168778,216 181.916821,216 Z M100.169785,206.653008 C93.438059,205.053229 86.7839394,203.229183 80.3351011,201.220738 L93.0875787,146.078217 C99.7416983,147.32415 106.558541,148.420572 113.417942,149.382432 L100.169785,206.653008 Z M249.569541,149.382432 C256.446466,148.420572 263.255798,147.314183 269.899904,146.078217 L282.652382,201.220738 C276.19353,203.229183 269.549424,205.050737 262.817698,206.653008 L249.569541,149.382432 Z M325.829056,131.308922 C332.337977,128.993978 338.581534,126.507095 344.517169,123.893127 L363,158.475254 C357.939328,162.924207 352.596862,167.045097 347.005579,170.812487 L325.829056,131.308922 Z M15.9693864,170.812487 C10.3852952,167.046133 5.05109211,162.925167 0,158.475254 L18.4653071,123.893127 C24.383418,126.507095 30.6545127,128.993978 37.1534196,131.308922 L15.9693864,170.812487 Z M181.215861,125.211324 C177.734423,125.211324 174.293039,125.174777 170.891711,125.101682 L170.891711,82.6352876 C174.329756,82.7200111 177.77114,82.7623728 181.215861,82.7623728 C184.680609,82.7623728 188.152868,82.7200111 191.607603,82.6253201 L191.607603,125.09919 C188.172895,125.173946 184.708981,125.214647 181.215861,125.221292 L181.215861,125.211324 Z M233.269702,79.4506818 C240.171661,78.548626 246.980993,77.4571883 253.635113,76.2112549 L263.368453,118.012321 C256.746878,119.258254 249.922525,120.344708 243.020565,121.274175 L233.269702,79.4506818 Z M119.94689,121.286634 C113.034917,120.359659 106.218074,119.268222 99.6065131,118.02478 L109.332343,76.2237143 C115.968938,77.4696477 122.795795,78.5561016 129.697754,79.4631411 L119.94689,121.286634 Z M291.351804,66.7571122 C297.98089,64.6190905 304.334598,62.2717519 310.287757,59.7798851 L330.412839,97.4793383 C324.579844,100.185506 318.343798,102.749637 311.809843,105.106943 L291.351804,66.7571122 Z M51.1576127,105.111926 C44.5886097,102.737177 38.3625768,100.190489 32.5546169,97.484322 L52.6796988,59.7848688 C58.640368,62.2767357 64.9965793,64.6290579 71.6156509,66.7620959 L51.1576127,105.111926 Z M181.218364,53.9789881 C177.736926,53.9789881 174.303888,53.9331349 170.919249,53.8417665 L170.919249,0.0174430678 L191.63514,0.0174430678 L191.610106,53.8417665 C188.193757,53.9364574 184.729009,53.9821416 181.215861,53.9789881 L181.218364,53.9789881 Z M136.26175,51.3324566 C129.299708,50.4902056 122.472852,49.433654 115.888828,48.1827369 L127.11171,0.0124593341 L148.21313,0.0124593341 L136.26175,51.3324566 Z M214.761836,0 L235.870766,0 L247.093648,48.1702776 C240.507121,49.416211 233.682768,50.4777462 226.735747,51.3199972 L214.761836,0 Z M255.722974,0 L278.396549,0 L296.246012,33.4333772 C290.087933,36.1423913 283.789603,38.5238194 277.377653,40.5675919 L255.722974,0 Z M85.5923063,40.5725756 C79.1816298,38.5321657 72.8856207,36.1506674 66.731457,33.4383609 L84.5809201,0.00498373365 L107.239474,0.00498373365 L85.5923063,40.5725756 Z"></path>
        </g>
    </g>
</svg>